Coordinates
version=1
nRows=38
nColumns=12
inDegrees=yes

Units are S.I. units (second, meters, Newtons, ...)
Angles are in degrees

endheader
time	SC_y	SC_z	SC_x	AC_y	AC_z	AC_x	GH_y	GH_z	GH_yy	EL_x	PS_y
       0.0              -28.58          31.34          79.44          46.89         -11.89          2.101         -119.0          28.83         -65.54          53.01          33.57
   0.03835              -28.58          31.34          79.44          46.89         -11.89          2.099         -119.0          28.83         -65.55          53.02          33.57
    0.0767              -28.59          31.34          79.44           46.9         -11.89          2.097         -119.0          28.83         -65.56          53.03          33.58
    0.1151              -28.59          31.34          79.43           46.9         -11.89          2.094         -119.0          28.83         -65.57          53.04          33.58
    0.1534              -28.59          31.34          79.43           46.9         -11.89          2.092         -118.9          28.83         -65.58          53.06          33.58
    0.1918              -28.59          31.34          79.43          46.91         -11.89           2.09         -118.9          28.83         -65.59          53.07          33.58
    0.2301               -28.6          31.34          79.43          46.91         -11.89          2.087         -118.9          28.83         -65.61          53.09          33.59
    0.2685               -28.6          31.35          79.42          46.91         -11.89          2.084         -118.9          28.83         -65.62          53.11          33.59
    0.3068               -28.6          31.35          79.42          46.92         -11.89          2.081         -118.9          28.83         -65.63          53.12           33.6
    0.3452               -28.6          31.35          79.41          46.92         -11.89          2.078         -118.8          28.83         -65.65          53.14           33.6
    0.3835              -28.61          31.35          79.41          46.93         -11.89          2.074         -118.8          28.83         -65.67          53.16           33.6
    0.4219              -28.61          31.36           79.4          46.93         -11.89          2.071         -118.8          28.83         -65.68          53.19          33.61
    0.4602              -28.62          31.36           79.4          46.94         -11.89          2.067         -118.8          28.83          -65.7          53.21          33.61
    0.4986              -28.62          31.36          79.39          46.94         -11.89          2.062         -118.7          28.82         -65.73          53.24          33.62
    0.5369              -28.62          31.36          79.39          46.95         -11.88          2.058         -118.7          28.82         -65.75          53.27          33.63
    0.5753              -28.63          31.37          79.38          46.95         -11.88          2.052         -118.7          28.82         -65.77           53.3          33.63
    0.6136              -28.64          31.37          79.37          46.96         -11.88          2.047         -118.6          28.82          -65.8          53.33          33.64
     0.652              -28.64          31.37          79.37          46.97         -11.88          2.041         -118.6          28.82         -65.83          53.37          33.65
    0.6903              -28.65          31.38          79.36          46.98         -11.88          2.034         -118.5          28.82         -65.86          53.41          33.66
    0.7287              -28.66          31.38          79.35          46.99         -11.88          2.027         -118.5          28.82          -65.9          53.45          33.67
     0.767              -28.66          31.39          79.34           47.0         -11.88          2.019         -118.4          28.81         -65.94           53.5          33.68
    0.8054              -28.67          31.39          79.33          47.01         -11.88           2.01         -118.4          28.81         -65.98          53.55          33.69
    0.8437              -28.68           31.4          79.31          47.02         -11.87            2.0         -118.3          28.81         -66.02          53.61           33.7
    0.8821              -28.69          31.41           79.3          47.04         -11.87           1.99         -118.2          28.81         -66.08          53.67          33.72
    0.9204              -28.71          31.42          79.28          47.05         -11.87          1.978         -118.1           28.8         -66.13          53.74          33.73
    0.9588              -28.72          31.42          79.27          47.07         -11.87          1.964         -118.0           28.8          -66.2          53.82          33.75
    0.9971              -28.73          31.43          79.25          47.09         -11.86           1.95         -117.9           28.8         -66.27          53.91          33.77
     1.036              -28.75          31.44          79.23          47.11         -11.86          1.933         -117.8          28.79         -66.35          54.01          33.79
     1.074              -28.77          31.46           79.2          47.13         -11.86          1.914         -117.7          28.79         -66.44          54.13          33.82
     1.112              -28.79          31.47          79.17          47.16         -11.85          1.892         -117.5          28.78         -66.55          54.26          33.85
     1.151              -28.82          31.49          79.14          47.19         -11.85          1.868         -117.4          28.77         -66.67           54.4          33.88
     1.189              -28.84           31.5          79.11          47.23         -11.84           1.84         -117.2          28.77          -66.8          54.57          33.92
     1.227              -28.88          31.52          79.06          47.27         -11.83          1.807         -116.9          28.76         -66.96          54.77          33.96
     1.266              -28.92          31.55          79.01          47.32         -11.83          1.769         -116.7          28.75         -67.14          54.99          34.01
     1.304              -28.96          31.58          78.96          47.38         -11.82          1.725         -116.4          28.74         -67.36          55.26          34.07
     1.342              -29.01          31.61          78.89          47.45         -11.81          1.673         -116.0          28.72         -67.61          55.57          34.14
     1.381              -29.07          31.65          78.81          47.53         -11.79          1.611         -115.6          28.71         -67.91          55.94          34.22
     1.419              -29.15           31.7          78.71          47.62         -11.78          1.537         -115.0          28.69         -68.27          56.39          34.32
